<svg width="19" height="19" viewBox="0 0 19 19" fill="none" xmlns="http://www.w3.org/2000/svg">
<g id="eva:arrow-ios-back-fill">
<path id="Vector" d="M14.3371 7.67167C14.3375 7.7844 14.3126 7.89579 14.2643 7.99764C14.216 8.09949 14.1454 8.18923 14.0579 8.26025L9.53039 11.9049C9.39537 12.0159 9.22601 12.0765 9.05123 12.0765C8.87645 12.0765 8.70709 12.0159 8.57207 11.9049L4.04457 8.13197C3.89047 8.00389 3.79356 7.81984 3.77517 7.6203C3.75677 7.42077 3.81839 7.22211 3.94647 7.06801C4.07455 6.91391 4.25861 6.817 4.45814 6.7986C4.65767 6.78021 4.85634 6.84183 5.01043 6.96991L9.055 10.3429L13.0996 7.0831C13.2103 6.99083 13.3452 6.93221 13.4882 6.91419C13.6313 6.89617 13.7765 6.9195 13.9067 6.98142C14.0368 7.04334 14.1466 7.14125 14.2228 7.26358C14.2991 7.38591 14.3388 7.52752 14.3371 7.67167Z" fill="#1F4AA8"/>
</g>
</svg>
